<?xml version="1.0" encoding="utf-8"?>
<!-- Generator: Adobe Illustrator 24.0.0, SVG Export Plug-In . SVG Version: 6.00 Build 0)  -->
<svg version="1.1" id="Layer_1" xmlns="http://www.w3.org/2000/svg" xmlns:xlink="http://www.w3.org/1999/xlink" x="0px" y="0px"
	 width="230px" height="106.4991px" viewBox="0 0 230 106.4991" style="enable-background:new 0 0 230 106.4991;"
	 xml:space="preserve">
<style type="text/css">
	.st0{fill:#17943E;}
	.st1{fill:#4472A1;}
	.st2{fill:#F6DD31;}
	.st3{fill:#F5DC31;}
</style>
<g>
	<g>
		<path class="st0" d="M77.9009,50.2555c0.7792-0.8042,1.5018-1.5498,2.284-2.3572c-7.7522,0-15.4167,0-23.1297,0
			c0.065,0.0962,0.1102,0.1919,0.1805,0.2628c0.5951,0.6008,1.1886,1.2036,1.7977,1.7901c0.1417,0.1365,0.2232,0.2573,0.2197,0.4613
			c-0.0198,1.1269-0.0176,2.2541-0.0396,3.3809c-0.0216,1.1082-0.0689,2.2158-0.0945,3.3239
			c-0.0387,1.6716-0.066,3.3436-0.1027,5.0152c-0.0291,1.3236-0.0691,2.647-0.0969,3.9706
			c-0.0375,1.7878-0.066,3.5757-0.1018,5.3635c-0.0302,1.506-0.062,3.012-0.0996,4.5178c-0.0256,1.0252-0.0633,2.0501-0.093,3.0752
			c-0.0062,0.2138-0.0009,0.428-0.0009,0.6747c4.5473,0.3623,9.0307,0.1467,13.5283-0.8599c-0.0629,0.1165-0.0803,0.18-0.121,0.2196
			c-1.0926,1.0603-2.1597,2.1432-3.4263,3.0134c-2.5624,1.7606-5.331,3.0903-8.3143,3.9311
			c-3.085,0.8694-6.2432,1.1626-9.4458,0.8919c-2.1371-0.1806-4.2184-0.6331-6.2787-1.2185
			c-2.946-0.837-5.8919-1.6777-8.8955-2.2938c-2.1585-0.4428-4.3263-0.841-6.5235-1.0122c-2.9965-0.2335-5.9832-0.195-8.964,0.3177
			c-2.2048,0.3792-4.3804,0.8443-6.5114,1.5232c-1.8813,0.5994-3.6972,1.3525-5.4434,2.2744
			C8.0451,86.618,7.852,86.6963,7.642,86.7454c3.3075-4.6686,7.6678-8.025,12.8689-10.3984c0-0.2112,0-0.4244,0-0.6375
			c0.0001-13.5651-0.0035-27.1301,0.0042-40.6952c0.0012-2.1531,0.2716-4.2795,0.6619-6.3988
			c0.4857-2.6374,1.322-5.1601,2.3975-7.6003c0.9695-2.1997,2.1515-4.2887,3.5782-6.2357c1.098-1.4983,2.2631-2.9415,3.5741-4.2522
			c1.8175-1.8172,3.7872-3.4565,5.9606-4.8463c2.0998-1.3427,4.2992-2.482,6.6276-3.3676c1.827-0.6948,3.6983-1.2478,5.6176-1.6212
			c1.8016-0.3505,3.617-0.599,5.4573-0.6244c1.1252-0.0155,2.2503-0.0627,3.3754-0.0632c10.7625-0.0049,21.525-0.007,32.2875-0.0002
			c2.8269,0.0018,4.9026,1.2922,6.2275,3.7733c0.4741,0.8878,0.6551,1.8665,0.679,2.8717c0.002,0.0829,0.0003,0.1658,0.0003,0.2487
			c0.0001,21.2099,0.0051,42.4198-0.0122,63.6297c-0.001,1.2842-0.1595,2.5702-0.2824,3.8517
			c-0.1071,1.1167-0.2362,2.2332-0.4111,3.3411c-0.302,1.9126-0.7061,3.8022-1.3973,5.6214
			c-0.3393,0.8929-0.8583,1.6082-1.6518,2.1718c-2.0141,1.4303-4.22,2.4732-6.5013,3.3835
			c-2.048,0.8171-4.1529,1.4488-6.2904,1.9778c-0.4949,0.1225-0.9967,0.2174-1.5318,0.3328
			c-0.0221-0.2947-0.0523-0.5532-0.0591-0.8123c-0.0275-1.0421-0.0537-2.0843-0.0692-3.1267
			c-0.0175-1.1767-0.016-2.3536-0.0355-3.5303c-0.0263-1.589-0.0647-3.1777-0.0977-4.7666
			c-0.0334-1.6054-0.0658-3.2109-0.0998-4.8163c-0.0323-1.5225-0.0646-3.0451-0.0996-4.5675
			c-0.0312-1.3567-0.0656-2.7134-0.0994-4.07c-0.0325-1.3069-0.0665-2.6138-0.099-3.9208c-0.0338-1.3567-0.0662-2.7134-0.0998-4.07
			c-0.0328-1.3235-0.0611-2.6472-0.1009-3.9705C77.9879,52.4498,77.9411,51.3432,77.9009,50.2555z M12.4003,83.3018
			c0.1289-0.0272,0.2603-0.0462,0.3864-0.0829c0.7309-0.2131,1.4575-0.441,2.1911-0.644c1.8037-0.4991,3.635-0.859,5.4892-1.1189
			c1.7898-0.2509,3.581-0.4244,5.3911-0.397c1.2919,0.0196,2.5783,0.0716,3.8671,0.1919c1.601,0.1494,3.1824,0.4014,4.761,0.6872
			c2.5585,0.4633,5.0691,1.1324,7.5804,1.7946c1.5518,0.4091,3.0853,0.8888,4.6413,1.2802
			c1.5896,0.3999,3.2122,0.6224,4.8481,0.7499c1.7595,0.1371,3.5091,0.0296,5.2477-0.2244
			c1.6729-0.2444,3.3038-0.6706,4.8977-1.2462c2.1631-0.7811,4.1875-1.8247,6.0879-3.1143c0.0988-0.067,0.1788-0.1617,0.3506-0.3201
			c-0.3792,0.0247-0.6405,0.0353-0.9005,0.0599c-0.461,0.0436-0.9204,0.1279-1.3818,0.1382
			c-1.4227,0.0319-2.8459,0.0476-4.2689,0.0494c-1.5906,0.0019-3.1741-0.113-4.7537-0.3079
			c-2.1558-0.2661-4.2832-0.6786-6.3578-1.3135c-2.1998-0.6732-4.369-1.4459-6.5639-2.1357
			c-2.6525-0.8336-5.3192-1.5998-8.1072-1.8798c-1.4699-0.1476-2.9417-0.2138-4.4114-0.2193
			c-1.2194-0.0046-2.449,0.1124-3.6573,0.2901c-2.5522,0.3753-5.0011,1.1379-7.3399,2.2253
			c-2.2931,1.0662-4.4288,2.3953-6.3807,4.0077c-0.5724,0.4728-1.1111,0.9864-1.6651,1.4815
			c-0.0226,0.0206-0.0452,0.0412-0.0679,0.0619C12.3227,83.311,12.3615,83.3064,12.4003,83.3018z M95.639,72.0222
			c0.0344-0.6578,0.0815-1.2347,0.0908-1.8123c0.0147-0.9116,0.0039-1.8237,0.0039-2.7355c0-20.0974,0.0008-40.1949-0.0049-60.2923
			c-0.0001-0.4945-0.0345-0.9959-0.1199-1.4824c-0.4778-2.7235-3.0506-4.4629-5.3976-4.4534
			C78.6041,1.293,66.9966,1.2729,55.3892,1.2619c-1.7292-0.0016-3.437,0.1801-5.1385,0.4475
			c-1.8683,0.2936-3.6884,0.7787-5.4751,1.4025c-4.3264,1.5103-8.1948,3.7836-11.6171,6.8355
			c-2.0413,1.8204-3.8287,3.8593-5.3831,6.0986c-2.426,3.4951-4.088,7.3334-5.091,11.4702
			c-0.5804,2.3938-0.9328,4.8167-0.9387,7.2701C21.7174,46.659,21.73,58.5317,21.7295,70.4044c0,0.1216,0.0189,0.2431,0.0339,0.4234
			c0.3164-0.2092,0.5792-0.377,0.836-0.5536c2.7006-1.857,5.5795-3.3921,8.5967-4.6567c3.3074-1.3863,6.7196-2.4321,10.2751-2.9863
			c1.6372-0.2552,3.2761-0.4654,4.9322-0.5258c1.6909-0.0617,3.3771,0.0259,5.0637,0.1471
			c1.5377,0.1105,3.0586,0.3279,4.5721,0.6103c0.546,0.1019,1.0934,0.196,1.6548,0.2962c0.0177-0.1123,0.0351-0.1761,0.0368-0.2404
			c0.0333-1.2588,0.0685-2.5175,0.0953-3.7765c0.0166-0.7791,0.0099-1.5587,0.0311-2.3376
			c0.0495-1.8215,0.0971-3.6432,0.1739-5.4636c0.0189-0.4492-0.0908-0.7769-0.4271-1.0892
			c-0.7165-0.6653-1.3838-1.3832-2.0919-2.0579c-0.2605-0.2481-0.3675-0.5017-0.3662-0.8664
			c0.0134-3.7641,0.0025-7.5282,0.0168-11.2923c0.0015-0.3969-0.104-0.6801-0.3938-0.9545
			c-0.7211-0.6825-1.4108-1.3983-2.1482-2.1358c5.3083-7.0372,10.6037-14.0573,15.9363-21.1268
			c5.3303,7.0272,10.6344,14.02,15.9537,21.0328c-0.7871,0.7854-1.5403,1.5554-2.3169,2.3011
			c-0.2595,0.2492-0.3671,0.5022-0.3658,0.8675c0.0135,3.8636,0.0053,7.7272,0.0142,11.5908
			c0.0007,0.3055-0.0786,0.5283-0.3016,0.7432c-0.7044,0.6787-1.3787,1.3887-2.0854,2.0649
			c-0.239,0.2287-0.344,0.4665-0.3082,0.7882c0.0311,0.2793,0.0506,0.5608,0.0583,0.8418c0.0391,1.4245,0.0728,2.8491,0.108,4.2737
			c0.0303,1.2256,0.0599,2.4513,0.0902,3.6769c0.0361,1.4576,0.0739,2.9153,0.1085,4.3729
			c0.0374,1.5738,0.0798,3.1476,0.1008,4.7216c0.0037,0.2792,0.0981,0.4277,0.3509,0.5168c0.3121,0.11,0.6134,0.2512,0.9261,0.3592
			c3.9742,1.3728,8.0581,2.1298,12.2681,2.15C93.9653,72.1235,94.773,72.058,95.639,72.0222z M54.941,33.4272
			c-0.0135,0.0326-0.027,0.0651-0.0405,0.0977c0.3688,0.3576,0.7245,0.7303,1.1108,1.0678c0.274,0.2394,0.3616,0.5039,0.3602,0.8657
			c-0.0134,3.5321-0.0081,7.0644-0.0081,10.5966c0,0.1773,0,0.3547,0,0.5483c8.1065,0,16.1549,0,24.2471,0
			c0-0.2106,0-0.3895,0-0.5685c0-3.3498,0.0228-6.6998-0.0177-10.0491c-0.0089-0.7387,0.1385-1.3065,0.7345-1.7612
			c0.2777-0.2118,0.5177-0.483,0.7852-0.7973C72.9979,33.4272,63.9695,33.4272,54.941,33.4272z M54.8079,32.1083
			c9.2457,0,18.3827,0,27.5382,0c-0.4654-0.7886-13.5344-17.9382-13.8383-18.1597C63.957,19.9808,59.4061,26.0132,54.8079,32.1083z"
			/>
		<path class="st1" d="M0,95.9374c0.4222-0.4812,0.8219-0.9583,1.2443-1.4144C3.1,92.52,5.328,91.0022,7.6791,89.6576
			c2.1916-1.2533,4.5168-2.1944,6.9363-2.9243c1.922-0.5798,3.8749-0.9958,5.8603-1.2403c1.2287-0.1513,2.4735-0.173,3.7114-0.2487
			c0.4779-0.0292,0.9573-0.0769,1.4347-0.0649c2.5455,0.064,5.0758,0.2691,7.5871,0.7256c2.8869,0.5247,5.6951,1.3413,8.4997,2.1777
			c2.8842,0.8602,5.7573,1.7585,8.6493,2.5917c3.019,0.8698,6.067,1.6374,9.1583,2.2046c1.5252,0.2798,3.0715,0.4456,4.6096,0.653
			c1.8226,0.2458,3.656,0.3131,5.4929,0.298c2.0511-0.0169,4.0867-0.182,6.1216-0.4722c2.2144-0.3158,4.3926-0.7756,6.5549-1.327
			c2.619-0.6679,5.176-1.522,7.6014-2.7239c0.8721-0.4322,1.6885-0.977,2.5286-1.4732c0.1989-0.1175,0.3911-0.2463,0.6713-0.4237
			c-0.0605,0.1681-0.0818,0.2525-0.1196,0.3288c-1.0732,2.165-2.4662,4.1148-4.0335,5.9432
			c-2.2659,2.6433-4.8536,4.9295-7.7582,6.8462c-1.7006,1.1222-3.4814,2.1025-5.3549,2.9212
			c-2.6059,1.1387-5.2998,1.9756-8.0978,2.457c-1.2509,0.2152-2.5202,0.3302-3.7844,0.4588c-1.9661,0.2-3.9403,0.1387-5.9075,0.057
			c-1.7978-0.0747-3.5776-0.3594-5.3472-0.7066c-3.1568-0.6195-6.2245-1.5564-9.2617-2.5903
			c-3.4763-1.1834-6.9354-2.4186-10.3904-3.6633c-3.1612-1.1389-6.3315-2.2503-9.6144-2.9839
			c-1.7556-0.3923-3.533-0.6978-5.3112-0.9744c-1.4011-0.2179-2.816-0.3583-4.229-0.4854c-2.1475-0.1931-4.304-0.1859-6.4534-0.0782
			c-2.3266,0.1167-4.641,0.3869-6.905,0.9788c-0.1273,0.0333-0.2576,0.0561-0.3876,0.0774C0.1156,96.0001,0.0855,95.9743,0,95.9374z
			"/>
		<path class="st2" d="M95.639,72.0222c-0.866,0.0359-1.6737,0.1013-2.481,0.0974c-4.2101-0.0202-8.294-0.7772-12.2681-2.15
			c-0.3128-0.108-0.614-0.2492-0.9261-0.3592c-0.2528-0.0891-0.3472-0.2376-0.3509-0.5168c-0.021-1.574-0.0633-3.1478-0.1008-4.7216
			c-0.0347-1.4577-0.0725-2.9153-0.1085-4.3729c-0.0303-1.2256-0.0599-2.4513-0.0902-3.6769
			c-0.0352-1.4246-0.069-2.8492-0.108-4.2737c-0.0077-0.281-0.0272-0.5624-0.0583-0.8418
			c-0.0359-0.3217,0.0691-0.5595,0.3082-0.7882c0.7067-0.6762,1.3811-1.3862,2.0854-2.0649
			c0.223-0.2149,0.3023-0.4377,0.3016-0.7432c-0.009-3.8636-0.0008-7.7272-0.0142-11.5908
			c-0.0013-0.3653,0.1063-0.6183,0.3658-0.8675c0.7765-0.7457,1.5297-1.5158,2.3169-2.3011
			c-5.3193-7.0128-10.6234-14.0056-15.9537-21.0328c-5.3326,7.0695-10.628,14.0896-15.9363,21.1268
			c0.7373,0.7375,1.427,1.4533,2.1482,2.1358c0.2899,0.2744,0.3953,0.5576,0.3938,0.9545
			c-0.0144,3.7641-0.0034,7.5282-0.0168,11.2923c-0.0013,0.3647,0.1058,0.6183,0.3662,0.8664
			c0.7082,0.6747,1.3754,1.3926,2.0919,2.0579c0.3363,0.3122,0.446,0.64,0.4271,1.0892c-0.0768,1.8204-0.1244,3.6421-0.1739,5.4636
			c-0.0212,0.7789-0.0145,1.5585-0.0311,2.3376c-0.0268,1.2589-0.062,2.5177-0.0953,3.7765
			c-0.0017,0.0643-0.0191,0.1281-0.0368,0.2404c-0.5614-0.1003-1.1088-0.1944-1.6548-0.2962
			c-1.5136-0.2824-3.0345-0.4998-4.5721-0.6103c-1.6866-0.1212-3.3728-0.2088-5.0637-0.1471
			c-1.6561,0.0604-3.295,0.2706-4.9322,0.5258c-3.5555,0.5542-6.9677,1.6-10.2751,2.9863
			c-3.0172,1.2646-5.8962,2.7997-8.5967,4.6567c-0.2568,0.1766-0.5196,0.3444-0.836,0.5536
			c-0.015-0.1802-0.0339-0.3018-0.0339-0.4234c0.0005-11.8727-0.0121-23.7455,0.0163-35.6181
			c0.0059-2.4534,0.3583-4.8763,0.9387-7.2701c1.003-4.1369,2.6649-7.9752,5.091-11.4702c1.5543-2.2393,3.3418-4.2782,5.3831-6.0986
			c3.4223-3.0519,7.2907-5.3252,11.6171-6.8355c1.7868-0.6238,3.6069-1.1089,5.4751-1.4025
			c1.7014-0.2674,3.4093-0.4491,5.1385-0.4475c11.6074,0.011,23.2149,0.0312,34.8222-0.0156
			c2.3469-0.0094,4.9197,1.7299,5.3976,4.4534c0.0853,0.4865,0.1197,0.9879,0.1199,1.4824
			c0.0058,20.0974,0.0049,40.1948,0.0049,60.2923c0,0.9119,0.0107,1.8239-0.0039,2.7355
			C95.7205,70.7874,95.6734,71.3644,95.639,72.0222z"/>
		<path class="st3" d="M12.3516,83.2536c0.5542-0.4949,1.0929-1.0085,1.6653-1.4814c1.9519-1.6124,4.0876-2.9415,6.3807-4.0077
			c2.3388-1.0874,4.7878-1.85,7.3399-2.2253c1.2083-0.1777,2.4379-0.2947,3.6573-0.2901c1.4697,0.0055,2.9415,0.0717,4.4114,0.2193
			c2.788,0.28,5.4547,1.0462,8.1072,1.8798c2.1949,0.6898,4.3641,1.4624,6.5639,2.1357c2.0746,0.6349,4.2019,1.0474,6.3578,1.3135
			c1.5796,0.195,3.1631,0.3099,4.7537,0.3079c1.423-0.0017,2.8463-0.0175,4.2689-0.0494c0.4614-0.0103,0.9208-0.0946,1.3818-0.1382
			c0.26-0.0246,0.5213-0.0353,0.9005-0.0599c-0.1718,0.1584-0.2518,0.2531-0.3506,0.3201
			c-1.9004,1.2896-3.9249,2.3332-6.0879,3.1143c-1.594,0.5756-3.2249,1.0018-4.8977,1.2462
			c-1.7386,0.254-3.4881,0.3615-5.2477,0.2244c-1.6359-0.1275-3.2586-0.35-4.8481-0.7499c-1.556-0.3914-3.0895-0.871-4.6413-1.2802
			c-2.5113-0.6621-5.0218-1.3313-7.5804-1.7946c-1.5786-0.2858-3.16-0.5378-4.761-0.6872
			c-1.2889-0.1203-2.5752-0.1723-3.8671-0.1919c-1.8101-0.0274-3.6013,0.1461-5.3911,0.397
			c-1.8542,0.2599-3.6856,0.6198-5.4892,1.1189c-0.7336,0.203-1.4603,0.431-2.1911,0.644
			c-0.1261,0.0368-0.2575,0.0557-0.3864,0.0829C12.3843,83.2855,12.3681,83.2694,12.3516,83.2536z"/>
		<path class="st3" d="M12.4003,83.3018c-0.0388,0.0046-0.0776,0.0092-0.1164,0.0138c0.0226-0.0206,0.0452-0.0412,0.0678-0.0619
			C12.3681,83.2694,12.3843,83.2855,12.4003,83.3018z"/>
	</g>
</g>
<g>
	<g>
		<g>
			<path class="st0" d="M127.7552,73.083c-0.1926-0.0458-0.3856-0.0915-0.5751-0.1482c-0.1837-0.055-0.3632-0.1241-0.5837-0.2006
				c1.7551-0.5317,3.359-1.1713,3.7811-3.1302c0.1682-0.7806,0.1178-1.619,0.0915-2.4286c-0.0459-1.416-1.3387-2.8584-2.6341-3.1846
				c-1.3441-0.3385-2.7217-0.6952-4.0944-0.7393c-3.2874-0.1054-6.5806-0.0355-9.8713-0.0184
				c-0.1415,0.0007-0.3786,0.157-0.4083,0.2801c-0.3147,1.3013-0.0143,1.7196,1.2976,1.6739
				c0.6265-0.0218,0.6801,0.2259,0.6787,0.7428c-0.0148,5.7211-0.0068,11.4423-0.0088,17.1634
				c-0.0002,0.6813,0.241,1.6475-0.1053,1.9686c-0.3935,0.3648-1.3218,0.1527-2.0176,0.1914c0,0.6584,0,1.3169,0,1.9753
				c3.9238,0.0012,7.8492,0.0677,11.7705-0.0315c1.3953-0.0353,2.825-0.3344,4.159-0.7624
				c1.6285-0.5225,2.8755-1.6436,3.5112-3.2858c0.2749-0.7102,0.4747-1.4727,0.5607-2.2282
				c0.1866-1.6387,0.0467-3.2581-0.8551-4.6977C131.3633,74.4852,129.7099,73.5482,127.7552,73.083z M120.4799,65.6733
				c0.0059-0.162,0.2419-0.4482,0.3787-0.4525c1.3983-0.0442,2.772-0.0662,4.0773,0.6833c0.5951,0.3417,0.8049,0.8383,1.1015,1.3291
				c0.8404,1.391,0.0142,4.1431-1.4964,4.5121c-1.219,0.2978-2.5344,0.2094-3.8083,0.2537c-0.0852,0.003-0.2561-0.318-0.2608-0.4917
				c-0.0258-0.9592-0.0123-1.9194-0.0123-2.8793c0.0009,0,0.0018,0,0.0027,0C120.4621,67.6429,120.4443,66.6572,120.4799,65.6733z
				 M128.1846,81.9898c-0.123,1.4448-1.6343,2.9876-3.082,3.0983c-1.355,0.1036-2.7184,0.0936-4.0759,0.1712
				c-0.5008,0.0286-0.583-0.1809-0.5779-0.6156c0.0194-1.6702,0.0078-3.3407,0.0084-5.0112
				c0.0005-1.5945,0.0427-3.1906-0.0183-4.7827c-0.028-0.7312,0.2298-0.9041,0.8921-0.8453
				c0.9496,0.0843,1.9098,0.0605,2.8563,0.1659c2.6808,0.2986,4.0678,2.4248,4.142,4.809
				C128.3603,79.9806,128.2699,80.9889,128.1846,81.9898z"/>
			<path class="st0" d="M228.0089,83.1833c-0.5473,0.6303-1.1075,1.3143-1.8061,1.7347c-1.4472,0.8709-3.1133,0.7892-4.7442,0.796
				c-0.4839,0.002-0.5845-0.1613-0.5808-0.6092c0.0199-2.4295,0.0246-4.8595-0.0015-7.2888
				c-0.0056-0.5196,0.1806-0.6308,0.6538-0.6213c1.3155,0.0265,2.632,0.0104,3.948,0.0091c1.1184-0.0011,1.159-0.0024,1.1598,1.146
				c0.0005,0.7092,0.4608,0.5065,0.8222,0.5244c0.3699,0.0183,0.7558,0.1066,0.7357-0.5266
				c-0.0408-1.2894-0.0475-2.5826,0.005-3.8712c0.0261-0.6403-0.1681-0.7915-0.7962-0.8017
				c-0.6743-0.0109-0.8496,0.2277-0.7535,0.8276c0.1044,0.652-0.1026,0.9213-0.8369,0.8883
				c-1.465-0.066-2.9353-0.0068-4.4024-0.0401c-0.1761-0.004-0.4934-0.2575-0.4968-0.4013c-0.037-1.543-0.0319-3.0872-0.0113-4.6308
				c0.0018-0.1353,0.1931-0.3831,0.2993-0.3847c1.6698-0.0254,3.3892-0.2375,4.8916,0.7276
				c0.6872,0.4414,1.3093,1.0057,1.8893,1.5859c0.4949,0.4951,0.8447,0.0713,1.1827-0.1272c0.125-0.0734,0.1345-0.532,0.0435-0.7514
				c-0.3344-0.806-0.7526-1.5769-1.0998-2.378c-0.1899-0.4383-0.4219-0.628-0.9439-0.6239
				c-3.6949,0.0292-7.3904,0.0384-11.0851-0.0038c-0.7175-0.0082-0.6654,0.3384-0.6867,0.8222
				c-0.023,0.5231,0.0688,0.842,0.6851,0.7265c0.7041-0.1319,0.8698,0.186,0.8656,0.8635
				c-0.0291,4.7074-0.0335,9.4151,0.0005,14.1224c0.005,0.6893-0.1935,0.9233-0.84,0.8018
				c-0.6708-0.1261-0.7024,0.2547-0.7128,0.7786c-0.011,0.555,0.0866,0.7836,0.7282,0.7764
				c3.2645-0.0366,6.5296-0.0212,9.7945-0.0108c0.3966,0.0013,0.7942,0.0733,1.1892,0.1279
				c0.4286,0.0593,0.728,0.0028,0.9471-0.4716c0.6123-1.3257,1.2938-2.6194,1.948-3.9257c0-0.1519,0-0.3039,0-0.4558
				C228.84,82.1714,228.8671,82.1949,228.0089,83.1833z"/>
			<path class="st0" d="M184.6442,81.1759c-0.5731-0.2486-1.099,0.0149-1.2955,0.6272c-0.3444,1.0732-1.014,1.9738-2.1259,2.0431
				c-2.1777,0.1357-4.3698,0.0399-6.5563,0.0399c0.5408-0.6986,1.1238-1.4599,1.7154-2.2144
				c1.4156-1.8055,2.8195-3.6205,4.2581-5.4075c1.2952-1.6089,2.6417-3.1766,3.9326-4.7888
				c0.1547-0.1933,0.2103-0.5901,0.1257-0.826c-0.2001-0.5584-0.5319-1.0679-0.7731-1.6137
				c-0.2242-0.5075-0.5667-0.6673-1.125-0.6613c-2.6585,0.0286-5.3175,0.0135-7.9762,0.002
				c-0.3095-0.0013-0.6787,0.1603-0.8131-0.4096c-0.035-0.1487-0.791-0.1562-1.2162-0.1582
				c-0.079-0.0004-0.2027,0.3294-0.2317,0.5182c-0.1098,0.7159-0.1922,1.436-0.2793,2.1553
				c-0.1142,0.9443-0.2404,1.8878-0.3237,2.8349c-0.0248,0.2818-0.1617,0.752,0.3942,0.6908
				c0.3676-0.0404,0.8181,0.2768,1.0327-0.4769c0.399-1.4011,1.3282-2.4297,2.894-2.5404c1.6054-0.1135,3.2187-0.1167,4.8286-0.165
				c0.2827-0.0085,0.5658-0.0012,0.9813-0.0012c-1.8213,2.2812-3.5178,4.4081-5.2164,6.5334
				c-1.6034,2.0062-3.206,4.013-4.8156,6.0142c-0.409,0.5084-1.1468,0.9759-1.1826,1.4998
				c-0.0377,0.5524,0.6363,1.1269,0.9008,1.7346c0.2188,0.5025,0.5159,0.6439,1.0396,0.64c3.0385-0.023,6.0774,0.0055,9.1156-0.0286
				c0.6102-0.0069,0.907,0.1258,0.8125,0.7704c0.5065,0,1.013,0,1.5195,0c0.0992-0.9694,0.2015-1.9385,0.297-2.9083
				c0.1105-1.1227,0.2271-2.2451,0.3093-3.37C184.8835,81.532,184.7764,81.2332,184.6442,81.1759z"/>
			<path class="st0" d="M151.741,78.0101c0.5471-1.0833,0.4851-2.2775,0.4725-3.4559c-0.0124-1.1699-0.4283-2.2151-1.1351-3.0914
				c-0.9375-1.1622-2.0377-2.1277-3.6293-2.3655c-1.0964-0.1638-2.1654-0.638-3.2576-0.6785
				c-2.7303-0.1012-5.4669-0.0366-8.2009-0.0289c-0.1589,0.0004-0.448,0.0719-0.4551,0.1351
				c-0.0447,0.3992-0.0802,0.8172,0.0047,1.2016c0.0239,0.108,0.4688,0.1913,0.7099,0.1694
				c0.5854-0.0531,0.7673,0.1374,0.764,0.7475c-0.0246,4.6075-0.0107,9.2153-0.009,13.823c0.0004,1.1929-0.0005,1.237-1.1485,1.2219
				c-0.6401-0.0084-0.5517,0.367-0.5232,0.7312c0.0268,0.3428-0.2302,0.8371,0.503,0.8263c2.1008-0.0309,4.2025-0.003,6.3036-0.0226
				c0.1647-0.0015,0.438-0.1633,0.4738-0.2996c0.2482-0.946,0.027-1.2202-0.9152-1.2226c-0.1266-0.0003-0.255-0.0148-0.3794,0.0015
				c-0.408,0.0536-0.5222-0.1313-0.5115-0.52c0.0237-0.8601-0.0016-1.7215,0.0178-2.5819c0.0039-0.1717,0.0696-0.4323,0.1893-0.4956
				c0.5518-0.2915,1.8627,0.0022,2.2662,0.5507c0.9993,1.3587,1.9398,2.7606,2.9372,4.1207
				c0.1601,0.2183,0.4881,0.4324,0.7453,0.4408c1.3657,0.0446,2.7352-0.0165,4.0999,0.0409c0.6858,0.0289,0.699-0.3033,0.7037-0.815
				c0.0046-0.5009-0.0385-0.8731-0.6717-0.7465c-0.5167,0.1033-0.8673-0.1411-1.1673-0.5139
				c-0.9713-1.2067-1.9423-2.4136-2.9469-3.662c1.4976-0.2112,2.5804-1.1143,3.6518-1.9768
				C151.1087,79.1611,151.4584,78.5697,151.741,78.0101z M148.0513,76.1166c-0.0784,0.7196-0.3179,1.4336-0.5672,2.1202
				c-0.5281,1.4548-1.8034,1.9109-3.1554,2.1269c-0.9609,0.1535-1.9518,0.1123-2.9271,0.1863
				c-0.4731,0.0359-0.6009-0.1406-0.5931-0.602c0.0264-1.568,0.0101-3.1367,0.009-4.7051s0.0181-3.1373-0.0122-4.7051
				c-0.0097-0.5007,0.1481-0.652,0.6388-0.6352c1.2722,0.0435,2.5837-0.1593,3.7617,0.4792c0.4594,0.249,0.8226,0.6764,1.2266,1.026
				c0.2621,0.2267,0.5737,0.4209,0.7684,0.6966C148.0544,73.3125,148.2053,74.7037,148.0513,76.1166z"/>
			<path class="st0" d="M168.5396,82.266c-0.271-0.0166-0.6407,0.3128-0.8384,0.5785c-0.9104,1.2233-1.8754,2.3869-3.4903,2.616
				c-1.1133,0.1579-2.2493,0.1503-3.3725,0.2468c-0.4913,0.0422-0.5871-0.1604-0.5835-0.6071
				c0.0195-2.4052,0.0333-4.8111-0.0052-7.2159c-0.0098-0.6125,0.2188-0.703,0.7433-0.6901c1.2652,0.0311,2.5318,0.0113,3.7978,0.01
				c1.1761-0.0013,1.2149-0.0026,1.2162,1.1626c0.0008,0.7276,0.489,0.4789,0.834,0.506c0.3692,0.029,0.752,0.0991,0.732-0.5306
				c-0.0418-1.3153-0.0415-2.6338,0.0028-3.949c0.02-0.5932-0.2028-0.6902-0.74-0.7165c-0.6846-0.0336-0.9355,0.189-0.8106,0.8512
				c0.1354,0.7176-0.2012,0.8806-0.8685,0.8589c-1.4417-0.047-2.886-0.0203-4.3292-0.0158
				c-0.3273,0.001-0.5818,0.0017-0.5743-0.4611c0.0244-1.5188,0.0048-3.0383,0.0265-4.5572
				c0.0021-0.1452,0.1743-0.4131,0.268-0.4133c1.5479-0.0038,3.1595-0.2949,4.5762,0.5408c0.8182,0.4826,1.5484,1.137,2.2489,1.7887
				c0.4776,0.4442,0.8072,0.0675,1.1264-0.1154c0.1361-0.078,0.1861-0.526,0.1003-0.7335
				c-0.3511-0.8483-0.7973-1.6571-1.1516-2.5043c-0.1734-0.4147-0.4025-0.5476-0.8411-0.5423
				c-1.8734,0.0224-3.7472,0.0095-5.6209,0.0095c0-0.0011,0-0.0022,0-0.0033c-1.823,0-3.6467,0.0281-5.4687-0.0157
				c-0.6115-0.0147-0.7563,0.1704-0.7599,0.7572c-0.0037,0.6078,0.1272,0.9208,0.7862,0.7922
				c0.6752-0.1319,0.7698,0.2049,0.7671,0.7983c-0.022,4.6841-0.0294,9.3685,0.0074,14.0524
				c0.0059,0.7469-0.1536,1.0935-0.9368,0.9415c-0.6259-0.1215-0.6406,0.2668-0.6074,0.7136
				c0.0296,0.3981-0.1541,0.8534,0.5881,0.8318c1.7202-0.0501,3.4433-0.0326,5.1647-0.0085
				c2.0676,0.029,4.1346,0.1067,6.2022,0.1226c0.2205,0.0017,0.544-0.2164,0.648-0.4202c0.6-1.1757,1.1441-2.3798,1.7157-3.5701
				C169.4529,82.624,169.3432,82.3152,168.5396,82.266z"/>
			<path class="st0" d="M213.5458,69.784c-0.2458-0.1881-0.4359-0.7822-0.8762-0.2444c-0.3835,0.4684-0.7339,0.3535-1.1536,0.0459
				c-1.3751-1.0076-2.9444-1.557-4.6267-1.6414c-3.0985-0.1554-5.8185,0.9328-7.9766,3.09
				c-1.6985,1.6978-2.5438,3.9291-2.6236,6.3455c-0.0551,1.6678,0.1651,3.2991,0.9387,4.867
				c0.4758,0.9645,0.9366,1.9142,1.6748,2.6756c1.8475,1.9053,4.1598,2.7405,7.0201,2.7736
				c1.5491-0.0641,3.3054-0.3652,4.8551-1.2356c0.9712-0.5455,1.7901-1.3889,2.6079-2.1711
				c0.5018-0.4799,0.0112-0.8365-0.3287-1.1803c-0.2631-0.266-0.5063-0.4433-0.8155-0.0875
				c-1.1974,1.378-2.7909,1.9689-4.531,2.1833c-1.354,0.1668-2.7416,0.1064-3.9284-0.633c-1.7733-1.1048-2.6459-2.8902-3.0649-4.845
				c-0.2412-1.1251-0.1937-2.3241-0.1808-3.4888c0.0211-1.9026,0.6839-3.5695,1.912-5.0486
				c1.1527-1.3884,3.7334-2.1676,5.4706-1.3904c0.9433,0.422,1.6803,1.7722,1.1676,2.622
				c-0.4827,0.8002-0.0936,1.1178,0.4005,1.4948c0.1313,0.1002,0.4778,0.1191,0.5835,0.0215
				c1.2041-1.1115,2.3663-2.2683,3.5726-3.3773C214.0405,70.1946,213.8034,69.9811,213.5458,69.784z"/>
			<path class="st0" d="M193.8546,85.6959c-0.1222,0.0227-0.2555-0.0161-0.3785,0.0045c-0.5702,0.0954-0.7149-0.1358-0.712-0.7028
				c0.024-4.5835,0.013-9.1671,0.014-13.7507c0.0003-1.2763,0.0023-1.3159,1.2837-1.318c0.6924-0.0012,0.5364-0.4335,0.5389-0.8067
				c0.0024-0.354,0.1377-0.7589-0.5131-0.7489c-2.1519,0.0333-4.3047,0.0105-6.4572,0.0212
				c-0.1533,0.0008-0.3837,0.0519-0.4463,0.1577c-0.3639,0.6149,0.0626,1.3588,0.754,1.3583
				c0.1013-0.0001,0.2051,0.0143,0.3035-0.0027c0.622-0.1073,0.7467,0.1888,0.74,0.759c-0.0283,2.3801-0.0119,4.7607-0.0117,7.1411
				c0.0002,2.2285,0.0003,4.457,0.0002,6.6855c0,1.1889-0.0017,1.2343-1.1806,1.1907c-0.6667-0.0247-0.6591,0.314-0.6551,0.7837
				c0.004,0.4564-0.0359,0.8031,0.6436,0.7866c2.0247-0.0493,4.0517-0.0391,6.077-0.005c0.5812,0.0098,0.7875-0.1295,0.7726-0.7427
				C194.6136,85.9306,194.5403,85.5686,193.8546,85.6959z"/>
			<path class="st0" d="M155.4931,58.0712c-0.1297-0.0049-0.2704,0.2825-0.4061,0.4357c0.1544,0.1037,0.3077,0.2956,0.4635,0.2976
				c1.5927,0.0213,3.191,0.0943,4.7775-0.0075c2.7498-0.1764,3.4951-2.4981,2.602-4.3741
				c-0.4278-0.8987-1.3149-1.2021-2.3001-1.5317c0.1902-0.0777,0.2698-0.1095,0.3489-0.1427
				c0.9748-0.4099,1.2753-1.0103,1.0979-2.1926c-0.0952-0.6341-0.9084-1.4229-1.6243-1.4585
				c-1.6328-0.0814-3.2682-0.1189-4.9029-0.1387c-0.1531-0.0019-0.4533,0.2778-0.4334,0.3756
				c0.0393,0.1932,0.2575,0.4987,0.3972,0.4962c0.519-0.009,0.488,0.2988,0.4875,0.6422c-0.0035,2.3264-0.0058,4.6528,0.0023,6.9791
				C156.0043,57.8193,155.9891,58.0898,155.4931,58.0712z M161.0606,54.7105c0.1214,0.3714,0.0983,0.79,0.141,1.1871
				c-0.032,1.6526-1.4442,2.6801-2.983,2.1288c-0.1095-0.0392-0.2195-0.2543-0.2213-0.3892
				c-0.0177-1.29-0.0186-2.5804-0.0034-3.8704c0.0016-0.1355,0.1071-0.35,0.2162-0.3915
				C159.1445,53.0202,160.7497,53.7594,161.0606,54.7105z M158.8329,50.0051c1.0151-0.0883,1.3849,0.5458,1.4108,1.2088
				c0.0308,0.7898-0.5993,1.367-1.4079,1.3723c-0.7345,0.0049-0.8578-0.2547-0.8673-1.6203
				C157.9639,50.3218,158.0774,49.8529,158.8329,50.0051z"/>
			<path class="st0" d="M140.8974,58.9686c2.8984,0.2185,5.4893-2.1759,5.401-4.9621c-0.0922-2.9111-2.2385-5.4707-5.642-5.2169
				c-3.0818,0.2298-5.015,1.8058-5.1087,4.7537C135.4577,56.3748,137.2795,59.167,140.8974,58.9686z M139.1668,50.0368
				c0.9898-0.6181,2.1413-0.5369,3.1193,0.138c1.2384,0.8545,1.6527,2.0744,1.6921,3.4647c0.0249,0.8791-0.0562,1.765-0.1425,2.6427
				c-0.1765,1.7944-2.5356,2.3721-3.8084,1.6653c-1.7983-0.9986-2.1363-2.7368-2.2946-4.4234
				C137.8489,52.0989,137.8972,50.8295,139.1668,50.0368z"/>
			<path class="st0" d="M202.6792,58.0769c-0.0988-0.0088-0.2763,0.2673-0.3125,0.4345c-0.0157,0.0727,0.2304,0.2868,0.364,0.2928
				c0.6822,0.0304,1.3675,0.0332,2.0493-0.0009c0.1569-0.0078,0.3047-0.1986,0.4566-0.3052
				c-0.1391-0.1502-0.2653-0.3156-0.421-0.446c-0.1456-0.1219-0.463-0.2045-0.4645-0.3079
				c-0.0284-1.9294-0.0208-3.8594-0.0208-5.8705c0.166,0.1127,0.2442,0.1404,0.2829,0.1958
				c1.4836,2.1236,2.9867,4.2342,4.4266,6.3871c0.3297,0.493,0.7219,0.3702,1.1029,0.3237
				c0.1121-0.0137,0.2499-0.4185,0.2515-0.6449c0.0171-2.532,0.0096-5.0642,0.0092-7.5963
				c-0.0001-0.3486-0.083-0.7235,0.4999-0.7099c0.1325,0.0031,0.3441-0.3178,0.3788-0.5144c0.0168-0.095-0.2852-0.3444-0.455-0.3567
				c-0.6297-0.0457-1.2669-0.0535-1.8957-0.0043c-0.1797,0.014-0.3407,0.2686-0.5103,0.4129
				c0.1522,0.1645,0.2995,0.3339,0.4582,0.4919c0.1433,0.1427,0.4273,0.2708,0.4298,0.4092c0.03,1.6895,0.0195,3.3797,0.0195,5.0697
				c-0.0475,0.0124-0.0949,0.0248-0.1424,0.0372c-1.112-1.586-2.2319-3.1664-3.3338-4.7593
				c-1.1993-1.7337-1.1921-1.7387-2.9542-1.6811c-0.0253,0.0008-0.0584-0.0082-0.0747,0.0044
				c-0.1625,0.1259-0.4698,0.2832-0.4519,0.3781c0.0371,0.1967,0.2493,0.5128,0.386,0.511
				c0.5036-0.0067,0.4993,0.2739,0.4983,0.6314c-0.0066,2.3042-0.0079,4.6084,0.0016,6.9126
				C203.2593,57.7866,203.262,58.1287,202.6792,58.0769z"/>
			<path class="st0" d="M219.9332,58.8012c0.6549,0.0381,1.3146,0.042,1.9692,0.0026c0.1732-0.0104,0.3345-0.2187,0.5013-0.3361
				c-0.1497-0.1399-0.2902-0.385-0.451-0.3991c-0.4188-0.0369-0.4859-0.1143-0.3481-0.5504
				c0.4499-1.4237,0.4218-1.4326,1.8962-1.4324c0.1264,0,0.2528,0,0.3792,0c1.9314-0.0011,1.9187,0.0028,2.3455,1.4176
				c0.0918,0.3042,0.2309,0.5116-0.2388,0.5725c-0.0996,0.0129-0.2221,0.2831-0.2267,0.4379
				c-0.0029,0.0984,0.1902,0.2881,0.2991,0.2908c0.9093,0.0231,1.8196,0.0199,2.7291,0.001
				c0.102-0.0021,0.2853-0.1531,0.2838-0.2324c-0.0031-0.1703-0.0695-0.3619-0.1691-0.5031
				c-0.1775-0.2514-0.4897-0.4391-0.5878-0.7104c-0.8262-2.2855-1.6143-4.5848-2.4184-6.8783
				c-0.5652-1.6123-0.5684-1.6111-2.0828-1.5442c-0.0505,0.0022-0.1187-0.02-0.1486,0.0051
				c-0.1273,0.1067-0.3098,0.2066-0.3524,0.3457c-0.2247,0.7339-0.374,1.4923-0.6214,2.2177
				c-0.6884,2.0177-1.4215,4.0202-2.1136,6.0366c-0.1248,0.3635-0.2858,0.5323-0.6866,0.5285
				c-0.1248-0.0012-0.2521,0.2529-0.3783,0.3901C219.6528,58.5796,219.7871,58.7927,219.9332,58.8012z M224.0027,50.7919
				c0.4761,1.4528,0.8988,2.7191,1.2925,3.9944c0.028,0.0907-0.1542,0.3536-0.245,0.3568
				c-0.8051,0.0286-1.6116,0.0166-2.5095,0.0166C223.0226,53.7199,223.4819,52.3478,224.0027,50.7919z"/>
			<path class="st0" d="M174.0256,58.2194c0.9017,0.5499,1.8788,0.9176,2.7865,0.749c0.3409,0,0.4935-0.0106,0.6442,0.0017
				c1.3062,0.1059,2.2791-0.5993,3.2018-1.3675c0.1601-0.1333,0.5478-0.3832,0.1856-0.7937
				c-0.3714-0.4209-0.5653-0.0049-0.8049,0.0996c-0.5369,0.2343-1.0278,0.5999-1.5813,0.7653
				c-1.5953,0.4768-3.0621-0.2953-3.7861-1.8051c-0.5172-1.0785-0.5686-2.2173-0.3836-3.3103
				c0.2285-1.3498,0.8524-2.5322,2.3752-2.9328c0.6756-0.1777,1.2565,0.0115,1.7407,0.4066
				c0.4182,0.3412,0.4519,0.8372,0.1758,1.3477c-0.0535,0.0989,0.076,0.4069,0.1935,0.461
				c0.1561,0.0718,0.4433,0.0627,0.5697-0.0401c0.544-0.4426,1.0613-0.9206,1.5601-1.4142
				c0.1067-0.1056,0.1689-0.4533,0.1263-0.4786c-0.1895-0.1127-0.4229-0.1559-0.6439-0.2104
				c-0.1831-0.0452-0.3819-0.0431-0.5546-0.1108c-0.6611-0.2589-1.2954-0.7022-1.9741-0.781
				c-3.4007-0.3951-6.5459,2.6553-5.7486,6.1809C172.3968,56.2641,172.8316,57.4911,174.0256,58.2194z"/>
			<path class="st0" d="M189.9508,58.0721c-0.1194-0.005-0.2498,0.2503-0.3752,0.3861c0.1395,0.1199,0.2761,0.3394,0.4189,0.3436
				c1.0353,0.03,2.0721,0.0302,3.1075,0.0016c0.1484-0.0041,0.2911-0.2137,0.4364-0.3282c-0.142-0.1425-0.2775-0.3963-0.4273-0.405
				c-0.3466-0.0201-0.4912-0.1014-0.4893-0.4765c0.0126-2.4259-0.001-4.8521,0.0237-7.2778
				c0.0016-0.1545,0.2505-0.4338,0.3871-0.4355c0.3946-0.0049,0.5167-0.1248,0.5196-0.5237c0.0035-0.4959-0.3054-0.424-0.604-0.4239
				c-0.4549,0.0002-0.9098,0-1.3647,0c0,0.002,0,0.004,0,0.0059c-0.5307,0-1.0647-0.0327-1.59,0.0205
				c-0.1524,0.0154-0.3851,0.2741-0.3891,0.4263c-0.004,0.153,0.2355,0.4485,0.3606,0.4445c0.4744-0.0153,0.529,0.22,0.5273,0.6039
				c-0.0103,2.3502-0.0117,4.7005,0.001,7.0507C190.4955,57.8863,190.4071,58.0914,189.9508,58.0721z"/>
			<path class="st0" d="M177.4474,63.9261c-0.6321-0.3904-1.3223-0.6876-1.9911-1.0174c-1.3001-0.6412-1.3013-0.6388-2.0714,0.5438
				c1.4812,0.944,2.9697,1.8774,4.4392,2.8396c0.3756,0.246,0.7059,0.3337,1.0931,0.0711c1.3128-0.8907,2.608-1.8099,3.9507-2.6531
				c0.6721-0.422,0.0517-0.7195-0.0201-1.0514c-0.0777-0.3592-0.3111-0.4182-0.6741-0.2233
				c-0.9637,0.5175-1.9739,0.95-2.9281,1.4834C178.6169,64.2703,178.078,64.3155,177.4474,63.9261z"/>
			<path class="st0" d="M177.6435,47.8273c0.6394-0.3193,1.2243-0.7555,1.8014-1.1848c0.1135-0.0844,0.1521-0.364,0.1108-0.524
				c-0.0222-0.0861-0.2927-0.1625-0.4413-0.1471c-0.1611,0.0167-0.3239,0.1269-0.4633,0.2277
				c-0.9877,0.7143-1.978,0.7098-2.9401-0.0206c-0.5175-0.3929-0.8469-0.2244-1.1165,0.2349
				c0.6821,0.4535,1.341,0.9453,2.0542,1.3386C176.9206,47.902,177.3825,47.9576,177.6435,47.8273z"/>
		</g>
	</g>
</g>
</svg>
